<svg width="34" height="35" viewBox="0 0 34 35" fill="none" xmlns="http://www.w3.org/2000/svg">
<g clip-path="url(#clip0_2_1123)">
<path d="M25.75 12.3396L22.9167 15.1729M22.9167 15.1729L20.7917 9.93128C20.5913 9.39484 20.233 8.93172 19.7641 8.60295C19.2953 8.27418 18.7378 8.09521 18.1652 8.08961H7.9C7.32271 8.07636 6.75516 8.2398 6.27334 8.55806C5.79152 8.87631 5.41845 9.33419 5.20408 9.87036L3.08333 15.1729M22.9167 15.1729H3.08333M22.9167 15.1729C24.4815 15.1729 25.75 16.4415 25.75 18.0063V23.6729C25.75 25.2378 24.4815 26.5063 22.9167 26.5063M3.08333 15.1729L0.25 12.3396M3.08333 15.1729C1.51853 15.1729 0.25 16.4415 0.25 18.0063V23.6729C0.25 25.2378 1.51853 26.5063 3.08333 26.5063M5.91667 20.8396H5.93083M20.0833 20.8396H20.0975M22.9167 26.5063H3.08333M22.9167 26.5063V29.3396M3.08333 26.5063V29.3396" stroke="#F7F7F7" stroke-width="2.5" stroke-linecap="round" stroke-linejoin="round"/>
</g>
<defs>
<clipPath id="clip0_2_1123">
<rect width="34" height="34" fill="white" transform="translate(0 0.751953)"/>
</clipPath>
</defs>
</svg>
