<svg width="36" height="42" viewBox="0 0 36 42" fill="none" xmlns="http://www.w3.org/2000/svg">
<path d="M35.3409 17.4636C35.3409 7.81952 27.5462 -2.62405e-07 17.924 -1.69049e-07C8.30178 -7.56937e-08 0.5 7.81952 0.5 17.4636C0.5 27.1077 17.924 42 17.924 42C17.924 42 35.3479 27.1077 35.3479 17.4636L35.3409 17.4636Z" fill="#1483DF"/>
<path d="M17.9241 30.4816C10.4808 30.4816 4.42212 24.4092 4.42212 16.9489C4.42212 9.48868 10.4738 3.40918 17.9241 3.40918C25.3745 3.40918 31.4261 9.48164 31.4261 16.9419C31.4261 24.4021 25.3674 30.4746 17.9241 30.4746L17.9241 30.4816ZM17.9241 6.22703C12.0271 6.22703 7.23357 11.0315 7.23357 16.9419C7.23357 22.8523 12.0271 27.6567 17.9241 27.6567C23.8211 27.6567 28.6147 22.8523 28.6147 16.9419C28.6147 11.0315 23.8211 6.22703 17.9241 6.22703Z" fill="white"/>
</svg>
