<svg width="25" height="24" viewBox="0 0 25 24" fill="none" xmlns="http://www.w3.org/2000/svg">
<path fill-rule="evenodd" clip-rule="evenodd" d="M5.5 6.25C4.77065 6.25 4.07118 6.53973 3.55546 7.05546C3.03973 7.57118 2.75 8.27065 2.75 9V18C2.75 18.7293 3.03973 19.4288 3.55546 19.9445C4.07118 20.4603 4.77065 20.75 5.5 20.75H19.5C20.2293 20.75 20.9288 20.4603 21.4445 19.9445C21.9603 19.4288 22.25 18.7293 22.25 18V9C22.25 8.27065 21.9603 7.57118 21.4445 7.05546C20.9288 6.53973 20.2293 6.25 19.5 6.25H5.5ZM17 12.25C16.6685 12.25 16.3505 12.3817 16.1161 12.6161C15.8817 12.8505 15.75 13.1685 15.75 13.5C15.75 13.8315 15.8817 14.1495 16.1161 14.3839C16.3505 14.6183 16.6685 14.75 17 14.75C17.3315 14.75 17.6495 14.6183 17.8839 14.3839C18.1183 14.1495 18.25 13.8315 18.25 13.5C18.25 13.1685 18.1183 12.8505 17.8839 12.6161C17.6495 12.3817 17.3315 12.25 17 12.25Z" fill="#CEE451"/>
<path d="M16.985 3.0694C17.2811 2.9905 17.5913 2.98068 17.8918 3.04071C18.1923 3.10073 18.4749 3.229 18.718 3.4156C18.961 3.60221 19.1579 3.84216 19.2935 4.11694C19.4291 4.39172 19.4998 4.69398 19.5 5.0004H9.5L16.985 3.0694Z" fill="#CEE451"/>
</svg>
