<svg width="16" height="17" viewBox="0 0 16 17" fill="none" xmlns="http://www.w3.org/2000/svg">
<path d="M15.5001 12.19V14.44C15.5009 14.6488 15.4581 14.8556 15.3745 15.047C15.2908 15.2383 15.168 15.4101 15.0141 15.5513C14.8602 15.6926 14.6785 15.8001 14.4806 15.867C14.2828 15.9339 14.0731 15.9588 13.8651 15.94C11.5572 15.6892 9.34032 14.9006 7.39257 13.6375C5.58044 12.4859 4.04407 10.9496 2.89257 9.13745C1.62506 7.18085 0.836254 4.9532 0.590072 2.63495C0.57133 2.42755 0.595978 2.21852 0.662447 2.02117C0.728916 1.82382 0.83575 1.64247 0.976146 1.48867C1.11654 1.33487 1.28743 1.21198 1.47792 1.12784C1.6684 1.0437 1.87433 1.00015 2.08257 0.999951H4.33257C4.69655 0.996368 5.04942 1.12526 5.32539 1.3626C5.60137 1.59994 5.78163 1.92954 5.83257 2.28995C5.92754 3.01 6.10366 3.717 6.35757 4.39745C6.45848 4.66589 6.48032 4.95764 6.4205 5.23811C6.36069 5.51859 6.22172 5.77603 6.02007 5.97995L5.06757 6.93245C6.13524 8.81011 7.68991 10.3648 9.56757 11.4325L10.5201 10.48C10.724 10.2783 10.9814 10.1393 11.2619 10.0795C11.5424 10.0197 11.8341 10.0415 12.1026 10.1425C12.783 10.3964 13.49 10.5725 14.2101 10.6675C14.5744 10.7188 14.9071 10.9024 15.145 11.1831C15.3828 11.4638 15.5092 11.8221 15.5001 12.19Z" fill="white"/>
<path d="M11.0001 0.999951V5.49995M11.0001 5.49995H15.5001M11.0001 5.49995L15.5001 0.999951M15.5001 12.19V14.44C15.5009 14.6488 15.4581 14.8556 15.3745 15.047C15.2908 15.2383 15.168 15.4101 15.0141 15.5513C14.8602 15.6926 14.6785 15.8001 14.4806 15.867C14.2828 15.9339 14.0731 15.9588 13.8651 15.94C11.5572 15.6892 9.34032 14.9006 7.39257 13.6375C5.58044 12.4859 4.04407 10.9496 2.89257 9.13745C1.62506 7.18085 0.836254 4.9532 0.590072 2.63495C0.57133 2.42755 0.595978 2.21852 0.662447 2.02117C0.728916 1.82382 0.83575 1.64247 0.976146 1.48867C1.11654 1.33487 1.28743 1.21198 1.47792 1.12784C1.6684 1.0437 1.87433 1.00015 2.08257 0.999951H4.33257C4.69655 0.996368 5.04942 1.12526 5.32539 1.3626C5.60137 1.59994 5.78163 1.92954 5.83257 2.28995C5.92754 3.01 6.10366 3.717 6.35757 4.39745C6.45848 4.66589 6.48032 4.95764 6.4205 5.23811C6.36069 5.51858 6.22172 5.77603 6.02007 5.97995L5.06757 6.93245C6.13524 8.81011 7.68991 10.3648 9.56757 11.4325L10.5201 10.48C10.724 10.2783 10.9814 10.1393 11.2619 10.0795C11.5424 10.0197 11.8341 10.0415 12.1026 10.1425C12.783 10.3964 13.49 10.5725 14.2101 10.6675C14.5744 10.7188 14.9071 10.9024 15.145 11.1831C15.3828 11.4638 15.5092 11.8221 15.5001 12.19Z" stroke="white" stroke-linecap="round" stroke-linejoin="round"/>
</svg>
