<svg width="39" height="38" viewBox="0 0 39 38" fill="none" xmlns="http://www.w3.org/2000/svg">
<rect x="0.333252" width="38" height="38" rx="19" fill="#1483DF"/>
<path d="M28.3327 23.4765V26.1862C28.3337 26.4377 28.2821 26.6867 28.1811 26.9172C28.0801 27.1477 27.932 27.3546 27.7463 27.5247C27.5606 27.6947 27.3413 27.8242 27.1025 27.9048C26.8638 27.9854 26.6108 28.0153 26.3597 27.9927C23.5748 27.6907 20.8996 26.7409 18.5493 25.2197C16.3625 23.8329 14.5086 21.9827 13.1191 19.8003C11.5895 17.4439 10.6377 14.7611 10.3406 11.9692C10.318 11.7194 10.3477 11.4676 10.4279 11.23C10.5081 10.9923 10.6371 10.7739 10.8065 10.5887C10.9759 10.4034 11.1821 10.2554 11.412 10.1541C11.6418 10.0528 11.8903 10.0003 12.1416 10.0001H14.8567C15.2959 9.99577 15.7217 10.151 16.0548 10.4368C16.3878 10.7227 16.6053 11.1196 16.6668 11.5537C16.7814 12.4208 16.9939 13.2723 17.3003 14.0918C17.4221 14.4151 17.4484 14.7664 17.3763 15.1042C17.3041 15.442 17.1364 15.752 16.8931 15.9976L15.7437 17.1447C17.032 19.406 18.9081 21.2784 21.1739 22.5642L22.3233 21.4171C22.5693 21.1742 22.88 21.0069 23.2184 20.9348C23.5569 20.8628 23.909 20.8891 24.2329 21.0106C25.054 21.3164 25.9071 21.5285 26.776 21.6429C27.2157 21.7048 27.6172 21.9258 27.9042 22.2639C28.1912 22.6019 28.3437 23.0335 28.3327 23.4765Z" fill="white" stroke="white" stroke-width="0.5" stroke-linecap="round" stroke-linejoin="round"/>
</svg>
