<svg width="64" height="65" viewBox="0 0 64 65" fill="none" xmlns="http://www.w3.org/2000/svg">
<rect x="1" y="1.30469" width="62" height="62" rx="31" fill="#9BC8FF"/>
<rect x="1" y="1.30469" width="62" height="62" rx="31" stroke="#1483DF" stroke-width="2"/>
<mask id="path-2-outside-1_2_1411" maskUnits="userSpaceOnUse" x="16" y="12.8047" width="32" height="36" fill="black">
<rect fill="white" x="16" y="12.8047" width="32" height="36"/>
<path d="M22.8642 46.8047V43.1087H18.9042V38.6207H22.8642V35.6727H18.9042V31.0527H22.8642V15.6967H33.8642C35.5948 15.6967 37.1642 15.8727 38.5722 16.2247C39.9802 16.5474 41.1975 17.1047 42.2242 17.8967C43.2802 18.6887 44.0868 19.7154 44.6442 20.9767C45.2308 22.238 45.5242 23.7927 45.5242 25.6407C45.5242 28.0167 45.0108 29.9527 43.9842 31.4487C42.9575 32.9154 41.5788 33.986 39.8482 34.6607C38.1175 35.3354 36.1815 35.6727 34.0402 35.6727H28.3642V38.6207H38.3082V43.1087H28.3642V46.8047H22.8642ZM28.3642 31.0527H33.6442C34.8468 31.0527 35.9322 30.8767 36.9002 30.5247C37.8682 30.1727 38.6308 29.6154 39.1882 28.8527C39.7455 28.0607 40.0242 27.0194 40.0242 25.7287C40.0242 23.91 39.5108 22.6194 38.4842 21.8567C37.4575 21.094 35.9175 20.7127 33.8642 20.7127H28.3642V31.0527Z"/>
</mask>
<path d="M22.8642 46.8047V43.1087H18.9042V38.6207H22.8642V35.6727H18.9042V31.0527H22.8642V15.6967H33.8642C35.5948 15.6967 37.1642 15.8727 38.5722 16.2247C39.9802 16.5474 41.1975 17.1047 42.2242 17.8967C43.2802 18.6887 44.0868 19.7154 44.6442 20.9767C45.2308 22.238 45.5242 23.7927 45.5242 25.6407C45.5242 28.0167 45.0108 29.9527 43.9842 31.4487C42.9575 32.9154 41.5788 33.986 39.8482 34.6607C38.1175 35.3354 36.1815 35.6727 34.0402 35.6727H28.3642V38.6207H38.3082V43.1087H28.3642V46.8047H22.8642ZM28.3642 31.0527H33.6442C34.8468 31.0527 35.9322 30.8767 36.9002 30.5247C37.8682 30.1727 38.6308 29.6154 39.1882 28.8527C39.7455 28.0607 40.0242 27.0194 40.0242 25.7287C40.0242 23.91 39.5108 22.6194 38.4842 21.8567C37.4575 21.094 35.9175 20.7127 33.8642 20.7127H28.3642V31.0527Z" fill="white"/>
<path d="M22.8642 46.8047H20.8642V48.8047H22.8642V46.8047ZM22.8642 43.1087H24.8642V41.1087H22.8642V43.1087ZM18.9042 43.1087H16.9042V45.1087H18.9042V43.1087ZM18.9042 38.6207V36.6207H16.9042V38.6207H18.9042ZM22.8642 38.6207V40.6207H24.8642V38.6207H22.8642ZM22.8642 35.6727H24.8642V33.6727H22.8642V35.6727ZM18.9042 35.6727H16.9042V37.6727H18.9042V35.6727ZM18.9042 31.0527V29.0527H16.9042V31.0527H18.9042ZM22.8642 31.0527V33.0527H24.8642V31.0527H22.8642ZM22.8642 15.6967V13.6967H20.8642V15.6967H22.8642ZM38.5722 16.2247L38.0871 18.165L38.1062 18.1697L38.1254 18.1741L38.5722 16.2247ZM42.2242 17.8967L41.0026 19.4803L41.0133 19.4885L41.0242 19.4967L42.2242 17.8967ZM44.6442 20.9767L42.8148 21.785L42.8226 21.8027L42.8307 21.8201L44.6442 20.9767ZM43.9842 31.4487L45.6226 32.5956L45.6279 32.588L45.6332 32.5804L43.9842 31.4487ZM39.8482 34.6607L39.1217 32.7973L39.8482 34.6607ZM28.3642 35.6727V33.6727H26.3642V35.6727H28.3642ZM28.3642 38.6207H26.3642V40.6207H28.3642V38.6207ZM38.3082 38.6207H40.3082V36.6207H38.3082V38.6207ZM38.3082 43.1087V45.1087H40.3082V43.1087H38.3082ZM28.3642 43.1087V41.1087H26.3642V43.1087H28.3642ZM28.3642 46.8047V48.8047H30.3642V46.8047H28.3642ZM28.3642 31.0527H26.3642V33.0527H28.3642V31.0527ZM36.9002 30.5247L37.5836 32.4043L36.9002 30.5247ZM39.1882 28.8527L40.8029 30.0327L40.8135 30.0183L40.8238 30.0037L39.1882 28.8527ZM38.4842 21.8567L37.2915 23.4622L38.4842 21.8567ZM28.3642 20.7127V18.7127H26.3642V20.7127H28.3642ZM24.8642 46.8047V43.1087H20.8642V46.8047H24.8642ZM22.8642 41.1087H18.9042V45.1087H22.8642V41.1087ZM20.9042 43.1087V38.6207H16.9042V43.1087H20.9042ZM18.9042 40.6207H22.8642V36.6207H18.9042V40.6207ZM24.8642 38.6207V35.6727H20.8642V38.6207H24.8642ZM22.8642 33.6727H18.9042V37.6727H22.8642V33.6727ZM20.9042 35.6727V31.0527H16.9042V35.6727H20.9042ZM18.9042 33.0527H22.8642V29.0527H18.9042V33.0527ZM24.8642 31.0527V15.6967H20.8642V31.0527H24.8642ZM22.8642 17.6967H33.8642V13.6967H22.8642V17.6967ZM33.8642 17.6967C35.4616 17.6967 36.8647 17.8594 38.0871 18.165L39.0572 14.2844C37.4637 13.886 35.728 13.6967 33.8642 13.6967V17.6967ZM38.1254 18.1741C39.284 18.4397 40.2296 18.884 41.0026 19.4803L43.4458 16.3131C42.1654 15.3254 40.6763 14.655 39.0189 14.2752L38.1254 18.1741ZM41.0242 19.4967C41.7936 20.0737 42.3895 20.8226 42.8148 21.785L46.4735 20.1684C45.7841 18.6081 44.7668 17.3036 43.4242 16.2967L41.0242 19.4967ZM42.8307 21.8201C43.2611 22.7455 43.5242 23.9929 43.5242 25.6407H47.5242C47.5242 23.5925 47.2005 21.7305 46.4576 20.1332L42.8307 21.8201ZM43.5242 25.6407C43.5242 27.7364 43.072 29.2433 42.3351 30.317L45.6332 32.5804C46.9497 30.6621 47.5242 28.297 47.5242 25.6407H43.5242ZM42.3457 30.3018C41.5544 31.4321 40.4989 32.2604 39.1217 32.7973L40.5746 36.5241C42.6587 35.7116 44.3605 34.3986 45.6226 32.5956L42.3457 30.3018ZM39.1217 32.7973C37.6552 33.369 35.9705 33.6727 34.0402 33.6727V37.6727C36.3925 37.6727 38.5798 37.3017 40.5746 36.5241L39.1217 32.7973ZM34.0402 33.6727H28.3642V37.6727H34.0402V33.6727ZM26.3642 35.6727V38.6207H30.3642V35.6727H26.3642ZM28.3642 40.6207H38.3082V36.6207H28.3642V40.6207ZM36.3082 38.6207V43.1087H40.3082V38.6207H36.3082ZM38.3082 41.1087H28.3642V45.1087H38.3082V41.1087ZM26.3642 43.1087V46.8047H30.3642V43.1087H26.3642ZM28.3642 44.8047H22.8642V48.8047H28.3642V44.8047ZM28.3642 33.0527H33.6442V29.0527H28.3642V33.0527ZM33.6442 33.0527C35.0416 33.0527 36.3632 32.8481 37.5836 32.4043L36.2167 28.6451C35.5011 28.9053 34.652 29.0527 33.6442 29.0527V33.0527ZM37.5836 32.4043C38.8894 31.9295 39.9903 31.1448 40.8029 30.0327L37.5734 27.6727C37.2714 28.0859 36.8469 28.4159 36.2167 28.6451L37.5836 32.4043ZM40.8238 30.0037C41.6857 28.7789 42.0242 27.2962 42.0242 25.7287H38.0242C38.0242 26.7425 37.8053 27.3425 37.5525 27.7017L40.8238 30.0037ZM42.0242 25.7287C42.0242 23.5605 41.4024 21.533 39.6768 20.2512L37.2915 23.4622C37.6193 23.7057 38.0242 24.2596 38.0242 25.7287H42.0242ZM39.6768 20.2512C38.1525 19.1189 36.1068 18.7127 33.8642 18.7127V22.7127C35.7281 22.7127 36.7625 23.0692 37.2915 23.4622L39.6768 20.2512ZM33.8642 18.7127H28.3642V22.7127H33.8642V18.7127ZM26.3642 20.7127V31.0527H30.3642V20.7127H26.3642Z" fill="#1483DF" mask="url(#path-2-outside-1_2_1411)"/>
</svg>
