<svg width="28" height="29" viewBox="0 0 28 29" fill="none" xmlns="http://www.w3.org/2000/svg">
<path d="M13.4459 3.39385C13.497 3.29055 13.576 3.2036 13.6739 3.14281C13.7718 3.08202 13.8848 3.0498 14.0001 3.0498C14.1153 3.0498 14.2283 3.08202 14.3262 3.14281C14.4241 3.2036 14.5031 3.29055 14.5542 3.39385L17.2492 8.85268C17.4268 9.21198 17.6888 9.52282 18.013 9.75854C18.3371 9.99426 18.7135 10.1478 19.1101 10.206L25.1371 11.088C25.2513 11.1046 25.3586 11.1527 25.4468 11.2271C25.535 11.3014 25.6007 11.399 25.6364 11.5087C25.6721 11.6185 25.6764 11.736 25.6487 11.848C25.6211 11.9601 25.5627 12.0621 25.4801 12.1427L21.1214 16.387C20.834 16.6671 20.6189 17.0129 20.4947 17.3946C20.3705 17.7763 20.341 18.1824 20.4086 18.578L21.4376 24.5747C21.4577 24.6888 21.4454 24.8063 21.402 24.9138C21.3586 25.0213 21.2858 25.1144 21.192 25.1825C21.0982 25.2506 20.9872 25.291 20.8716 25.2991C20.7559 25.3071 20.6404 25.2825 20.5381 25.228L15.1504 22.3953C14.7954 22.2089 14.4004 22.1116 13.9995 22.1116C13.5985 22.1116 13.2036 22.2089 12.8486 22.3953L7.46206 25.228C7.35978 25.2822 7.24436 25.3065 7.12892 25.2983C7.01349 25.2901 6.90267 25.2497 6.80908 25.1816C6.71548 25.1135 6.64287 25.0206 6.5995 24.9133C6.55612 24.806 6.54373 24.6887 6.56373 24.5747L7.59156 18.5792C7.65946 18.1834 7.63005 17.777 7.50586 17.3951C7.38167 17.0132 7.16644 16.6672 6.87873 16.387L2.52007 12.1438C2.43676 12.0634 2.37772 11.9611 2.34969 11.8488C2.32165 11.7364 2.32574 11.6184 2.36149 11.5082C2.39724 11.3981 2.46321 11.3002 2.55189 11.2257C2.64057 11.1512 2.74839 11.1031 2.86307 11.0868L8.8889 10.206C9.28586 10.1483 9.66285 9.99491 9.98741 9.75917C10.312 9.52342 10.5744 9.21233 10.7521 8.85268L13.4459 3.39385Z" fill="#1483DF" stroke="#1483DF" stroke-linecap="round" stroke-linejoin="round"/>
</svg>
